HIERARCHY
ROOT Pelvis
{
	OFFSET 0.000000 0.000000 0.000000
	CHANNELS 6 Xposition Yposition Zposition Xrotation Yrotation Zrotation
	JOINT LeftUpLeg_virtual
	{
		OFFSET 0.000000 0.000000 0.000000
		CHANNELS 3 Xrotation Yrotation Zrotation
		JOINT LeftUpLeg
		{
			OFFSET 18.735201 -5.666702 -4.541200
			CHANNELS 3 Xrotation Yrotation Zrotation
			JOINT LeftLeg
			{
				OFFSET -0.021200 -31.938179 0.493100
				CHANNELS 3 Xrotation Yrotation Zrotation
				JOINT LeftFoot
				{
					OFFSET 0.021200 -31.938179 -4.336299
					CHANNELS 3 Xrotation Yrotation Zrotation
					JOINT LeftToeBase
					{
						OFFSET 0.943001 -26.722000 15.023500
						CHANNELS 3 Xrotation Yrotation Zrotation
						End Site
						{
							OFFSET 0 0 0
						}
					}
				}
			}
		}
	}
	JOINT RightUpLeg_virtual
	{
		OFFSET 0.000000 0.000000 0.000000
		CHANNELS 3 Xrotation Yrotation Zrotation
		JOINT RightUpLeg
		{
			OFFSET -18.735201 -5.666702 -4.541200
			CHANNELS 3 Xrotation Yrotation Zrotation
			JOINT RightLeg
			{
				OFFSET 0.018946 -31.938133 0.493100
				CHANNELS 3 Xrotation Yrotation Zrotation
				JOINT RightFoot
				{
					OFFSET -0.018946 -31.938126 -4.336299
					CHANNELS 3 Xrotation Yrotation Zrotation
					JOINT RightToeBase
					{
						OFFSET -0.943001 -26.722004 15.023500
						CHANNELS 3 Xrotation Yrotation Zrotation
						End Site
						{
							OFFSET 0 0 0
						}
					}
				}
			}
		}
	}
	JOINT Hips_virtual
	{
		OFFSET 0.000000 0.000000 0.000000
		CHANNELS 3 Xrotation Yrotation Zrotation
		JOINT Hips
		{
			OFFSET -0.000000 -0.000000 -0.000000
			CHANNELS 3 Xrotation Yrotation Zrotation
			JOINT Spine
			{
				OFFSET 0.000000 10.199997 -0.299500
				CHANNELS 3 Xrotation Yrotation Zrotation
				JOINT Spine1
				{
					OFFSET 0.000000 11.900002 -1.516600
					CHANNELS 3 Xrotation Yrotation Zrotation
					JOINT Spine2
					{
						OFFSET 0.000000 13.600006 -2.842500
						CHANNELS 3 Xrotation Yrotation Zrotation
						JOINT Neck_virtual
						{
							OFFSET 0.000000 0.000000 0.000000
							CHANNELS 3 Xrotation Yrotation Zrotation
							JOINT Neck
							{
								OFFSET 0.000000 9.624100 -2.890100
								CHANNELS 3 Xrotation Yrotation Zrotation
								JOINT Head
								{
									OFFSET 0.000000 14.068802 -1.351900
									CHANNELS 3 Xrotation Yrotation Zrotation
									End Site
									{
										OFFSET 0 0 0
									}
								}
							}
						}
						JOINT LeftShoulder_virtual
						{
							OFFSET 0.000000 0.000000 0.000000
							CHANNELS 3 Xrotation Yrotation Zrotation
							JOINT LeftShoulder
							{
								OFFSET 15.263000 10.923401 -0.547700
								CHANNELS 3 Xrotation Yrotation Zrotation
								JOINT LeftArm
								{
									OFFSET 25.438599 -2.830597 -13.032500
									CHANNELS 3 Xrotation Yrotation Zrotation
									JOINT LeftForeArm
									{
										OFFSET 29.960503 0.000000 0.000000
										CHANNELS 3 Xrotation Yrotation Zrotation
										JOINT LeftHand
										{
											OFFSET 27.849251 0.000000 0.000000
											CHANNELS 3 Xrotation Yrotation Zrotation
											End Site
											{
												OFFSET 0 0 0
											}
										}
									}
								}
							}
						}
						JOINT RightShoulder_virtual
						{
							OFFSET 0.000000 0.000000 0.000000
							CHANNELS 3 Xrotation Yrotation Zrotation
							JOINT RightShoulder
							{
								OFFSET -15.263000 10.923401 -0.547700
								CHANNELS 3 Xrotation Yrotation Zrotation
								JOINT RightArm
								{
									OFFSET -25.438599 -2.830597 -13.032500
									CHANNELS 3 Xrotation Yrotation Zrotation
									JOINT RightForeArm
									{
										OFFSET -29.960503 0.000000 0.000000
										CHANNELS 3 Xrotation Yrotation Zrotation
										JOINT RightHand
										{
											OFFSET -27.849251 0.000000 0.000000
											CHANNELS 3 Xrotation Yrotation Zrotation
											End Site
											{
												OFFSET 0 0 0
											}
										}
									}
								}
							}
						}
					}
				}
			}
		}
	}
}
MOTION
Frames: 4
Frame Time: 0.03333333
-1.313477 85.399017 -7.461346 0.000000 0.000000 0.000000 -3.424604 -60.464284 -1.823501 -49.081849 15.082123 41.762601 67.514145 -0.025717 3.413907 5.982952 5.330093 -9.950462 0.000000 0.000000 0.000000 -4.094099 -59.672822 -2.896734 -29.650889 -20.614604 -32.959146 44.329444 7.346324 1.553083 -18.391638 -4.146006 18.032510 0.000000 0.000000 0.000000 -2.757686 -58.434509 -1.166683 -0.511246 0.923837 -1.750768 9.330599 0.117495 -5.972558 1.458532 0.538064 -2.331985 0.000000 0.000000 0.000000 1.974793 0.620187 -2.770750 -0.034129 -0.484697 -0.018477 0.000000 0.000000 0.000000 0.819954 1.117910 -2.811661 10.284725 11.980791 -5.480637 17.690378 -2.624179 -52.202951 -23.877081 -60.588518 -19.567263 0.000000 0.000000 0.000000 2.337814 0.387410 -3.387950 1.560540 3.141039 -0.624136 17.674387 20.153793 47.625830 0.520787 44.363875 1.194964 0.000000 0.000000 0.000000 
-1.476378 84.516617 -7.328815 0.000000 0.000000 0.000000 -1.331646 -63.860595 0.279055 -48.734117 12.136839 39.208633 66.662783 -1.644091 3.783339 -1.095683 2.713975 -12.991201 0.000000 0.000000 0.000000 -2.843513 -63.378992 -1.451352 -32.744490 -17.414448 -33.977814 45.462033 9.870973 0.621421 -17.641754 -2.505606 21.969029 0.000000 0.000000 0.000000 -1.858928 -61.675106 0.009035 -0.708604 1.151630 -1.832891 9.637107 0.278690 -7.145795 1.731618 1.109949 -2.979997 0.000000 0.000000 0.000000 2.249833 1.265986 -3.462136 0.059971 -0.462667 0.225872 0.000000 0.000000 0.000000 0.948726 1.809394 -3.395992 8.865339 10.425133 -7.286748 7.490748 2.550308 -49.562810 -16.408679 -51.581985 -11.197956 0.000000 0.000000 0.000000 2.416368 1.031830 -3.993651 1.058498 2.105513 -0.515050 17.517866 20.304464 47.839372 -0.451434 39.395875 1.732111 0.000000 0.000000 0.000000 
-1.638032 83.630760 -6.705212 0.000000 0.000000 0.000000 0.848185 -66.530352 2.460718 -47.223224 10.916786 36.353334 63.242757 -2.911120 3.859602 -7.039385 1.332278 -15.386642 0.000000 0.000000 0.000000 -1.130893 -66.012242 0.511973 -35.783016 -14.274651 -34.843216 47.821819 11.278246 -0.500828 -16.806638 -1.355929 23.464971 0.000000 0.000000 0.000000 -0.870608 -64.523240 1.303797 -0.787342 1.188136 -1.814278 10.151806 0.377966 -8.061262 2.373421 1.660817 -3.544921 0.000000 0.000000 0.000000 2.732682 1.888412 -4.033482 0.020453 -0.428755 0.441502 0.000000 0.000000 0.000000 1.512202 2.411468 -3.910523 7.432349 8.560556 -8.348315 -1.511218 6.805822 -47.494557 -11.541967 -44.915276 -6.364380 0.000000 0.000000 0.000000 2.832956 1.713237 -4.452374 0.798771 1.902178 -0.671675 16.376543 19.581558 48.843205 -1.658425 35.699193 2.419005 0.000000 0.000000 0.000000 
-1.787709 82.788666 -5.836845 0.000000 0.000000 0.000000 2.559857 -68.489736 4.223805 -44.983332 10.466257 33.529508 58.389402 -3.592845 3.908052 -9.996122 1.005168 -16.388458 0.000000 0.000000 0.000000 0.617991 -67.614734 2.615062 -38.110868 -11.810551 -35.609939 50.464101 11.404018 -1.595915 -16.312259 -1.045797 23.159778 0.000000 0.000000 0.000000 0.290770 -66.885591 2.703286 -0.811234 0.912457 -1.807317 10.850733 0.395929 -8.646405 3.292473 2.086252 -3.951305 0.000000 0.000000 0.000000 3.348166 2.390038 -4.416331 -0.153439 -0.380228 0.632019 0.000000 0.000000 0.000000 2.416620 2.831361 -4.290570 6.080044 6.497614 -8.833883 -9.603571 10.902122 -45.805984 -7.669236 -40.404653 -3.202355 0.000000 0.000000 0.000000 3.562063 2.287312 -4.731464 0.797852 2.514274 -0.886985 14.760396 17.860146 49.827985 -3.206376 33.532725 3.396185 0.000000 0.000000 0.000000 
